# Alias OBJ Model File
# Exported from SketchUp, (c) 2000-2012 Trimble Navigation Limited
# File units = inches

mtllib bottle.mtl

g Mesh1 Group2 Group1 Model

usemtl _10
v 21.0181 61.5417 -13.1413
vt 33.6759 4.64003
vn 1 0.000752431 2.28501e-20
v 21.0181 61.5417 -18.1644
vt 34.1846 4.63938
v 21.0083 74.4978 -18.1599
vt 34.1858 5.9514
v 21.0083 74.4978 -13.1459
vt 33.678 5.95204
f 1/1/1 2/2/1 3/3/1 4/4/1 

vt 72.7462 3.85308
vn 0 -1 -0
vt 72.7465 4.36175
v 18.1644 61.5417 -10.2877
vt 72.4577 4.65091
v 13.1413 61.5417 -10.2877
vt 71.949 4.65123
v 10.2877 61.5417 -13.1413
vt 71.6599 4.36244
v 10.2877 61.5417 -18.1644
vt 71.6595 3.85377
v 13.1413 61.5417 -21.0181
vt 71.9483 3.56461
v 18.1644 61.5417 -21.0181
vt 72.457 3.56428
f 2/5/2 1/6/2 5/7/2 6/8/2 7/9/2 8/10/2 9/11/2 10/12/2 

vt 72.8664 4.65091
vn 0.707107 0.000781113 0.707107
vt 72.866 5.96292
v 18.1599 74.4978 -10.2974
vt 72.4581 5.96292
f 1/13/3 4/14/3 11/15/3 5/7/3 

vt 34.3052 6.74734
vn 0 1 -0
vt 34.3052 6.23959
v 18.1599 74.4978 -21.0083
vt 34.5937 5.95114
v 13.1459 74.4978 -21.0083
vt 35.1014 5.95114
v 10.2974 74.4978 -18.1599
vt 35.3899 6.23959
v 10.2974 74.4978 -13.1459
vt 35.3899 6.74734
v 13.1459 74.4978 -10.2974
vt 35.1014 7.03579
vt 34.5937 7.03579
f 4/16/4 3/17/4 12/18/4 13/19/4 14/20/4 15/21/4 16/22/4 11/23/4 

vn 0.707107 0.000781113 -0.707107
vt 34.5932 4.63913
f 2/2/5 10/24/5 12/18/5 3/3/5 

vt 35.1019 4.63913
vn -2.28501e-20 0.000752431 -1
f 9/25/6 13/19/6 12/18/6 10/24/6 

vt 35.5094 5.9514
vn -0.707107 0.000781113 -0.707107
vt 35.5106 4.63938
f 14/26/7 13/19/7 9/25/7 8/27/7 

vt 36.0171 5.95204
vn -1 0.000752431 1.32808e-15
vt 36.0192 4.64003
f 15/28/8 14/26/8 8/27/8 7/29/8 

vt 71.9503 5.96324
vn -0.707107 0.000781113 0.707107
vt 71.5424 5.96376
vt 71.5403 4.65175
f 16/30/9 15/31/9 7/32/9 6/8/9 

vn -8.34505e-20 0.000752431 1
f 5/7/10 11/15/10 16/30/10 6/8/10 

g Mesh2 Group1 Model

usemtl Stippolyte
v 8.26948 69.412 -12.3059
vt -2.72321 0.673903
vn -0.707107 0 0.707107
v 8.26948 58.9181 -12.3059
vt -2.72321 0.572021
v 12.3059 58.9181 -8.26948
vt -2.66779 0.572021
v 12.3059 69.412 -8.26948
vt -2.66779 0.673903
f 17/33/11 18/34/11 19/35/11 20/36/11 

v 8.26948 69.412 -18.9999
vt -1.74333 0.673903
vn -1 0 1.24456e-15
v 8.26948 58.9181 -18.9999
vt -1.74333 0.572021
vt -1.67834 0.572021
vt -1.67834 0.673903
f 21/37/12 22/38/12 18/39/12 17/40/12 

v 12.3059 69.412 -23.0363
vt -1.79875 0.673903
vn -0.707107 0 -0.707107
v 12.3059 58.9181 -23.0363
vt -1.79875 0.572021
f 23/41/13 24/42/13 22/38/13 21/37/13 

v 18.9999 69.412 -23.0363
vt -1.86374 0.673903
vn 4.97825e-16 0 -1
v 18.9999 58.9181 -23.0363
vt -1.86374 0.572021
f 25/43/14 26/44/14 24/42/14 23/41/14 

v 23.0363 69.412 -18.9999
vt -1.91916 0.673903
vn 0.707107 0 -0.707107
v 23.0363 58.9181 -18.9999
vt -1.91916 0.572021
f 27/45/15 28/46/15 26/44/15 25/43/15 

v 23.0363 69.412 -12.3059
vt -1.98415 0.673903
vn 1 0 -0
v 23.0363 58.9181 -12.3059
vt -1.98415 0.572021
f 29/47/16 30/48/16 28/46/16 27/45/16 

v 18.9999 69.412 -8.26948
vt -2.03957 0.673903
vn 0.707107 0 0.707107
v 18.9999 58.9181 -8.26948
vt -2.03957 0.572021
f 31/49/17 32/50/17 30/48/17 29/47/17 

vn 4.97825e-16 0 1
vt -2.6028 0.572021
vt -2.6028 0.673903
f 20/36/18 19/35/18 32/51/18 31/52/18 

v 13.1459 58.9181 -10.2974
vt -2.65963 0.552332
f 19/35/2 33/53/2 32/51/2

v 10.2974 58.9181 -13.1459
vt -2.68729 0.524677
f 19/35/2 34/54/2 33/53/2

vt -2.70697 0.532832
f 18/55/2 34/54/2 19/35/2

v 10.2974 58.9181 -18.1599
vt -2.68729 0.475997
f 34/54/2 18/55/2 35/56/2

vt -2.70697 0.467842
f 22/57/2 35/56/2 18/55/2

vt -2.66779 0.428654
f 35/56/2 22/57/2 24/58/2

v 13.1459 58.9181 -21.0083
vt -2.65963 0.448343
f 35/56/2 24/58/2 36/59/2

vt -2.6028 0.428654
f 36/59/2 24/58/2 26/60/2

v 18.1599 58.9181 -21.0083
vt -2.61095 0.448343
f 36/59/2 26/60/2 37/61/2

v 21.0083 58.9181 -18.1599
vt -2.5833 0.475997
f 37/61/2 26/60/2 38/62/2

vt -2.56361 0.467842
f 38/62/2 26/60/2 28/63/2

v 21.0083 58.9181 -13.1459
vt -2.5833 0.524677
f 38/62/2 28/63/2 39/64/2

vt -2.56361 0.532832
f 30/65/2 39/64/2 28/63/2

f 32/51/2 39/64/2 30/65/2

v 18.1599 58.9181 -10.2974
vt -2.61095 0.552332
f 32/51/2 40/66/2 39/64/2

f 32/51/2 33/53/2 40/66/2

usemtl Translucent_Glass_Gray
vt -18.1599 58.9181
vn -1.66157e-16 1.2919e-16 -1
v 18.1599 52.4694 -10.2974
vt -18.1599 52.4694
v 13.1459 52.4694 -10.2974
vt -13.1459 52.4694
vt -13.1459 58.9181
f 40/67/19 41/68/19 42/69/19 33/70/19 

vt -24.1507 58.9181
vn -0.707107 -2.65748e-16 -0.707107
v 21.0083 52.4694 -13.1459
vt -24.1507 52.4694
vt -20.1224 52.4694
vt -20.1224 58.9181
f 39/71/20 43/72/20 41/73/20 40/74/20 

vn -1 -5.16758e-16 -2.20865e-32
v 21.0083 52.4694 -18.1599
f 38/67/21 44/68/21 43/69/21 39/70/21 

vt -2.01416 58.9181
vn -0.707107 -3.5876e-16 0.707107
v 18.1599 52.4694 -21.0083
vt -2.01416 52.4694
vt 2.01416 52.4694
vt 2.01416 58.9181
f 37/75/22 45/76/22 44/77/22 38/78/22 

vt 13.1459 58.9181
vn 0 0 1
v 13.1459 52.4694 -21.0083
vt 13.1459 52.4694
vt 18.1599 52.4694
vt 18.1599 58.9181
f 36/79/23 46/80/23 45/81/23 37/82/23 

vt 20.1224 58.9181
vn 0.707107 4.65059e-16 0.707107
v 10.2974 52.4694 -18.1599
vt 20.1224 52.4694
vt 24.1507 52.4694
vt 24.1507 58.9181
f 35/83/24 47/84/24 46/85/24 36/86/24 

vn 1 3.87569e-16 -1.1631e-15
v 10.2974 52.4694 -13.1459
f 34/79/25 48/80/25 47/81/25 35/82/25 

vn 0.707107 4.65059e-16 -0.707107
f 33/75/26 42/76/26 48/77/26 34/78/26 

usemtl Stippolyte
vt -2.68729 0.603094
v 11.1866 52.4694 -5.56733
vt -2.67865 0.529516
vt -2.65963 0.575439
f 48/87/4 49/88/4 42/89/4

v 5.56733 52.4694 -11.1866
vt -2.73321 0.584072
f 49/88/4 48/87/4 50/90/4

vt -2.68729 0.651773
f 47/91/4 50/90/4 48/87/4

v 11.1866 52.4694 -25.7384
vt -2.67865 0.725351
f 51/92/4 50/90/4 47/91/4

v 5.56733 52.4694 -20.1191
vt -2.73321 0.670795
f 50/90/4 51/92/4 52/93/4

v 8.88054 46.0206 -31.3058
vt -3.07641 0.446802
vn -0.535238 0.653483 -0.535238
v 0 46.0206 -22.4252
vt -2.95447 0.446802
vt -2.97686 0.529516
vt -3.05402 0.529516
f 53/94/27 54/95/27 52/96/27 51/97/27 

v 8.88054 0 -31.3058
vt -3.07641 1.37969e-16
v 0 0 -22.4252
vt -2.95447 1.37969e-16
f 55/98/13 56/99/13 54/95/13 53/94/13 

v 2.1914 0 -21.5175
vt -2.76598 -0.208908
vt -2.78726 -0.21772
vt -2.70104 -0.303939
f 57/100/2 56/101/2 55/102/2

v 2.84217e-14 0 -8.88054
vt -2.78726 -0.0862188
f 56/101/2 57/100/2 58/103/2

v 2.1914 0 -9.78825
vt -2.76598 -0.0950315
f 59/104/2 58/103/2 57/100/2

v 8.88054 0 -0
vt -2.70104 2.20751e-15
f 58/103/2 59/104/2 60/105/2

v 9.78825 0 -2.1914
vt -2.69223 -0.0212758
f 60/105/2 59/104/2 61/106/2

vt -5.56446 1.35682
vt -5.49071 1.43058
v 2.1914 2.3125 -9.78825
vt -5.50658 1.44645
v 9.78825 2.3125 -2.1914
vt -5.58034 1.3727
f 61/107/15 59/108/15 62/109/15 63/110/15 

v 21.5175 0 -29.1143
vt -2.57835 1.11022e-15
v 29.1143 0 -21.5175
vt -2.5046 0.0737558
v 29.1143 0 -9.78825
vt -2.5046 0.187632
v 21.5175 0 -2.1914
vt -2.57835 0.261388
vt -2.69223 0.261388
vt -2.76598 0.187632
vt -2.76598 0.0737558
v 9.78825 0 -29.1143
vt -2.69223 1.11022e-15
f 64/111/2 65/112/2 66/113/2 67/114/2 61/115/2 59/116/2 57/117/2 68/118/2 

vt -5.71009 1.64996
vt -5.78385 1.57621
v 29.1143 2.3125 -21.5175
vt -5.76797 1.56033
v 21.5175 2.3125 -29.1143
vt -5.69422 1.63409
f 64/119/11 65/120/11 69/121/11 70/122/11 

vt -2.57835 -0.282664
v 22.4252 0 -31.3057
vt -2.56954 -0.303939
vt -2.5046 -0.208908
f 64/123/2 71/124/2 65/125/2

vt -2.69223 -0.282664
f 68/126/2 71/124/2 64/123/2

f 68/126/2 55/102/2 71/124/2

f 57/100/2 55/102/2 68/126/2

vt -2.79653 1.37969e-16
vt -2.69223 1.37969e-16
v 9.78825 2.3125 -29.1143
vt -2.69223 0.0224515
v 2.1914 2.3125 -21.5175
vt -2.79653 0.0224515
f 57/127/17 68/128/17 72/129/17 73/130/17 

vt -2.57835 1.37969e-16
vt -2.57835 0.0224515
f 68/128/23 64/131/23 70/132/23 72/129/23 

v 9.78825 43.148 -29.1143
vt -2.69223 0.418913
v 21.5175 43.148 -29.1143
vt -2.57835 0.418913
f 74/133/23 72/129/23 70/132/23 75/134/23 

v 2.1914 43.148 -21.5175
vt -5.36216 1.76916
vt -5.36216 1.3727
vt -5.25785 1.3727
vt -5.25785 1.76916
f 76/135/17 73/136/17 72/137/17 74/138/17 

v 2.1914 43.148 -9.78825
vt -5.47603 1.76916
vn 1 0 -2.42315e-15
vt -5.47603 1.3727
f 77/139/28 62/140/28 73/136/28 76/135/28 

v 9.78825 43.148 -2.1914
vt -5.58034 1.76916
vn 0.707107 2.13217e-18 -0.707107
f 78/141/29 63/110/29 62/140/29 77/139/29 

v 21.5175 43.148 -2.1914
vt -5.69422 1.76916
vn -2.42315e-15 0 -1
v 21.5175 2.3125 -2.1914
vt -5.69422 1.3727
f 79/142/30 80/143/30 63/110/30 78/141/30 

v 29.1143 43.148 -9.78825
vt -5.48763 1.7268
vn -0.707107 2.13217e-18 -0.707107
v 29.1143 2.3125 -9.78825
vt -5.76797 1.44645
vt -5.41388 1.65304
f 81/144/31 82/145/31 80/143/31 79/146/31 

v 29.1143 43.148 -21.5175
vt -5.37151 1.56033
vn -1 0 2.42315e-15
vt -5.37151 1.44645
f 83/147/32 69/121/32 82/145/32 81/148/32 

vt -2.47405 0.0224515
vt -2.47405 0.418913
f 75/134/11 70/132/11 69/149/11 83/150/11 

vt -5.50658 1.56033
vt -5.58034 1.63409
f 80/143/2 63/110/2 62/109/2 73/151/2 72/152/2 70/122/2 69/121/2 82/145/2 

vt -5.69422 1.35025
vt -5.58034 1.35025
f 67/153/30 61/154/30 63/110/30 80/143/30 

v 22.4252 0 -0
vt -2.56954 2.20751e-15
vt -2.57835 -0.0212758
f 84/155/2 61/106/2 67/156/2

f 60/105/2 61/106/2 84/155/2

vt -2.70104 1.37969e-16
vn 2.46034e-16 0 1
vt -2.56954 1.37969e-16
v 22.4252 46.0206 -0
vt -2.56954 0.446802
v 8.88054 46.0206 -0
vt -2.70104 0.446802
f 60/157/33 84/158/33 85/159/33 86/160/33 

v 31.3058 0 -8.88054
vt -2.44761 1.37969e-16
v 31.3058 46.0206 -8.88054
vt -2.44761 0.446802
f 84/158/17 87/161/17 88/162/17 85/159/17 

vt -2.5046 -0.0950315
vt -2.48332 -0.0862188
f 84/155/2 66/163/2 87/164/2

f 84/155/2 67/156/2 66/163/2

vt -5.78385 1.43058
vt -5.71009 1.35682
f 66/165/13 67/166/13 80/143/13 82/145/13 

vt -5.79042 1.56033
vt -5.79042 1.44645
f 65/167/32 66/168/32 82/145/32 69/121/32 

v 31.3058 0 -22.4252
vt -2.48332 -0.21772
f 65/125/2 89/169/2 66/163/2

f 65/125/2 71/124/2 89/169/2

vt -3.32984 1.37969e-16
vt -3.20791 1.37969e-16
v 22.4252 46.0206 -31.3057
vt -3.20791 0.446802
v 31.3058 46.0206 -22.4252
vt -3.32984 0.446802
f 89/170/15 71/171/15 90/172/15 91/173/15 

vn 4.92067e-16 0 -1
f 71/171/34 55/98/34 53/94/34 90/172/34 

vt -2.56954 0.808065
vn 4.22436e-16 0.653483 -0.756941
vt -2.70104 0.808065
v 20.1191 52.4694 -25.7384
vt -2.59193 0.725351
f 90/174/35 53/175/35 51/92/35 92/176/35 

vt -2.65963 0.679428
f 51/92/4 46/177/4 92/176/4

f 51/92/4 47/91/4 46/177/4

usemtl Translucent_Glass_Gray
v 13.1459 50.6534 -21.0083
vt 24.1507 50.6534
vn 0.707107 -6.28358e-16 0.707107
v 10.2974 50.6534 -18.1599
vt 20.1224 50.6534
f 93/178/36 46/85/36 47/84/36 94/179/36 

v 18.1599 50.6534 -21.0083
vt 18.1599 50.6534
vn 3.32314e-16 -9.17541e-16 1
vt 13.1459 50.6534
f 95/180/37 45/81/37 46/80/37 93/181/37 

v 21.0083 50.6534 -18.1599
vt 2.01416 50.6534
vt -2.01416 50.6534
f 96/182/11 44/77/11 45/76/11 95/183/11 

v 21.0083 50.6534 -13.1459
vt -13.1459 50.6534
vn -1 0 -0
vt -18.1599 50.6534
f 97/184/38 43/69/38 44/68/38 96/185/38 

v 18.1599 50.6534 -10.2974
vt -20.1224 50.6534
vt -24.1507 50.6534
f 98/186/13 41/73/13 43/72/13 97/187/13 

v 13.1459 50.6534 -10.2974
vn 0 0 -1
f 99/184/39 42/69/39 41/68/39 98/185/39 

v 10.2974 50.6534 -13.1459
vn 0.707107 3.35124e-16 -0.707107
f 100/182/40 48/77/40 42/76/40 99/183/40 

vn 1 9.17541e-16 -1.32926e-15
f 94/180/41 47/81/41 48/80/41 100/181/41 

vt 10.2974 13.1459
v 11.4665 50.6534 -13.6301
vt 11.4665 13.6301
vt 10.2974 18.1599
f 100/188/4 101/189/4 94/190/4

vt 13.1459 10.2974
f 101/189/4 100/188/4 99/191/4

vt 2.01416 46.5775
vn 0.480408 -0.733768 -0.480408
vt -2.01416 46.5775
vt -5.37178 35.5304
vt 5.37178 35.5304
f 100/192/42 99/193/42 78/194/42 77/195/42 

vt -13.1459 41.9698
vn -1.30516e-16 -0.733768 -0.6794
vt -18.1599 41.9698
vt -21.5175 30.9227
vt -9.78825 30.9227
f 99/196/43 98/197/43 79/198/43 78/199/43 

v 13.6301 50.6534 -11.4665
vt 13.6301 11.4665
vt 18.1599 10.2974
f 102/200/4 99/191/4 98/201/4

f 101/189/4 99/191/4 102/200/4

usemtl Stippolyte
v 13.6301 60.8542 -11.4665
vt -5.55106 0.590817
vt -5.55106 0.491781
vt -5.52135 0.491781
v 11.4665 60.8542 -13.6301
vt -5.52135 0.590817
f 103/202/15 102/203/15 101/204/15 104/205/15 

v 17.6756 60.8542 -11.4665
vt -5.59033 0.590817
v 17.6756 50.6534 -11.4665
vt -5.59033 0.491781
f 102/203/39 103/202/39 105/206/39 106/207/39 

vt -2.65493 0.498178
v 18.1599 60.8542 -10.2974
vt -2.61095 0.486828
vt -2.61565 0.498178
f 103/208/4 107/209/4 105/210/4

v 13.1459 60.8542 -10.2974
vt -2.65963 0.486828
f 103/208/4 108/211/4 107/209/4

vt -2.67593 0.519184
f 104/212/4 108/211/4 103/208/4

v 10.2974 60.8542 -13.1459
vt -2.68729 0.514483
f 104/212/4 109/213/4 108/211/4

v 10.2974 60.8542 -18.1599
vt -2.68729 0.563162
f 109/213/4 104/212/4 110/214/4

v 11.4665 60.8542 -17.6756
vt -2.67593 0.558461
f 111/215/4 110/214/4 104/212/4

v 13.1459 60.8542 -21.0083
vt -2.65963 0.590817
f 110/214/4 111/215/4 112/216/4

v 13.6301 60.8542 -19.8392
vt -2.65493 0.579467
f 112/216/4 111/215/4 113/217/4

v 13.6301 50.6534 -19.8392
vt -2.65493 0.491781
vt -2.65493 0.590817
vt -2.68464 0.590817
v 11.4665 50.6534 -17.6756
vt -2.68464 0.491781
f 114/218/17 113/219/17 111/220/17 115/221/17 

v 17.6756 50.6534 -19.8392
vt -2.61565 0.491781
v 17.6756 60.8542 -19.8392
vt -2.61565 0.590817
f 116/222/23 117/223/23 113/219/23 114/218/23 

v 19.8392 50.6534 -17.6756
vt -2.58595 0.491781
v 19.8392 60.8542 -17.6756
vt -2.58595 0.590817
f 118/224/11 119/225/11 117/223/11 116/222/11 

v 19.8392 50.6534 -13.6301
vt -5.62004 0.491781
v 19.8392 60.8542 -13.6301
vt -5.62004 0.590817
vt -5.65932 0.590817
vt -5.65932 0.491781
f 120/226/38 121/227/38 119/228/38 118/229/38 

f 106/207/13 105/206/13 121/227/13 120/226/13 

vt -2.59465 0.519184
f 105/210/4 107/209/4 121/230/4

v 21.0083 60.8542 -13.1459
vt -2.5833 0.514483
f 121/230/4 107/209/4 122/231/4

v 21.0083 69.412 -13.1459
vt -2.52316 0.673903
vn -0.707107 -2.35602e-16 -0.707107
vt -2.52316 0.590817
vt -2.48405 0.590817
v 18.1599 69.412 -10.2974
vt -2.48405 0.673903
f 123/232/44 122/233/44 107/234/44 124/235/44 

v 21.0083 69.412 -18.1599
vt -2.57184 0.673903
vn -1 -4.44173e-16 -6.2233e-35
v 21.0083 60.8542 -18.1599
vt -2.57184 0.590817
f 125/236/45 126/237/45 122/233/45 123/232/45 

v 18.1599 69.412 -21.0083
vt -2.61095 0.673903
vn -0.707107 -3.14136e-16 0.707107
v 18.1599 60.8542 -21.0083
vt -2.61095 0.590817
f 127/238/46 128/239/46 126/237/46 125/236/46 

v 13.1459 69.412 -21.0083
vt -2.65963 0.673903
vn -3.32314e-16 -2.22086e-16 1
f 129/240/47 112/216/47 128/239/47 127/238/47 

v 10.2974 69.412 -18.1599
vt -2.69874 0.673903
vn 0.707107 2.35602e-16 0.707107
vt -2.69874 0.590817
f 130/241/48 110/242/48 112/216/48 129/240/48 

v 10.2974 69.412 -13.1459
vt -2.74742 0.673903
vn 1 5.55216e-16 -1.1631e-15
vt -2.74742 0.590817
f 131/243/49 109/244/49 110/242/49 130/241/49 

v 13.1459 69.412 -10.2974
vt -2.43537 0.673903
vn 0.707107 4.71205e-16 -0.707107
vt -2.43537 0.590817
vt -2.39626 0.590817
vt -2.39626 0.673903
f 132/245/50 108/246/50 109/247/50 131/248/50 

vn -1.66157e-16 1.11043e-16 -1
f 124/235/51 107/234/51 108/246/51 132/245/51 

vt -2.65963 0.693592
vt -2.61095 0.693592
f 132/249/4 31/52/4 124/250/4

f 132/249/4 20/36/4 31/52/4

vt -2.68729 0.721247
f 131/251/4 20/36/4 132/249/4

vt -2.70697 0.713091
f 131/251/4 17/252/4 20/36/4

vt -2.70697 0.778082
f 17/252/4 131/251/4 21/253/4

vt -2.68729 0.769926
f 130/254/4 21/253/4 131/251/4

vt -2.66779 0.81727
f 21/253/4 130/254/4 23/255/4

vt -2.65963 0.797581
f 23/255/4 130/254/4 129/256/4

vt -2.6028 0.81727
f 23/255/4 129/256/4 25/257/4

vt -2.61095 0.797581
f 25/257/4 129/256/4 127/258/4

vt -2.5833 0.769926
f 25/257/4 127/258/4 125/259/4

vt -2.56361 0.778082
f 25/257/4 125/259/4 27/260/4

vt -2.56361 0.713091
f 27/260/4 125/259/4 29/261/4

vt -2.5833 0.721247
f 123/262/4 29/261/4 125/259/4

f 123/262/4 31/52/4 29/261/4

f 124/250/4 31/52/4 123/262/4

f 112/216/4 113/217/4 128/239/4

vt -2.61565 0.579467
f 128/239/4 113/217/4 117/263/4

vt -2.59465 0.558461
f 128/239/4 117/263/4 119/264/4

vt -2.5833 0.563162
f 128/239/4 119/264/4 126/265/4

f 126/265/4 119/264/4 122/231/4

f 121/230/4 122/231/4 119/264/4

usemtl Translucent_Glass_Gray
vt 17.6756 11.4665
vt 19.8392 13.6301
f 106/266/4 98/201/4 120/267/4

f 102/200/4 98/201/4 106/266/4

vt 21.0083 13.1459
f 120/267/4 98/201/4 97/268/4

vt -20.1224 30.3345
vn -0.480408 -0.733768 -0.480408
vt -24.1507 30.3345
vt -27.5083 19.2874
vt -16.7647 19.2874
f 98/269/52 97/270/52 81/271/52 79/272/52 

vt -13.1459 18.9987
vn -0.6794 -0.733768 5.14774e-16
vt -18.1599 18.9987
vt -21.5175 7.95157
vt -9.78825 7.95157
f 97/273/53 96/274/53 83/275/53 81/276/53 

vt 21.0083 18.1599
vt 19.8392 17.6756
f 96/277/4 118/278/4 97/268/4

vt 18.1599 21.0083
f 95/279/4 118/278/4 96/277/4

vt 17.6756 19.8392
f 95/279/4 116/280/4 118/278/4

vt 13.6301 19.8392
f 95/279/4 114/281/4 116/280/4

vt 13.1459 21.0083
f 93/282/4 114/281/4 95/279/4

vt 11.4665 17.6756
f 93/282/4 115/283/4 114/281/4

f 94/190/4 115/283/4 93/282/4

f 115/283/4 94/190/4 101/189/4

vt -17.6756 60.8542
vn -1 0 1.23561e-15
vt -17.6756 50.6534
vt -13.6301 50.6534
vt -13.6301 60.8542
f 111/284/54 115/285/54 101/286/54 104/287/54 

vt 24.1507 30.3345
vn 0.480408 -0.733768 0.480408
vt 20.1224 30.3345
vt 16.7647 19.2874
vt 27.5083 19.2874
f 93/288/55 94/289/55 76/290/55 74/291/55 

vt 18.1599 41.9698
vn 0.6794 -0.733768 -7.64309e-16
vt 13.1459 41.9698
vt 9.78825 30.9227
vt 21.5175 30.9227
f 94/292/56 100/293/56 77/294/56 76/295/56 

vt 18.1599 18.9987
vn -6.70325e-16 -0.733768 0.6794
vt 13.1459 18.9987
vt 9.78825 7.95157
vt 21.5175 7.95157
f 95/296/57 93/297/57 74/298/57 75/299/57 

vt 2.01416 14.0914
vn -0.480408 -0.733768 0.480408
vt -2.01416 14.0914
vt -5.37178 3.04429
vt 5.37178 3.04429
f 96/300/58 95/301/58 75/302/58 83/303/58 

f 120/267/4 97/268/4 118/278/4

usemtl Stippolyte
v 20.1191 52.4694 -5.56733
vt -2.59193 0.529516
vt -2.61095 0.575439
f 42/89/4 133/304/4 41/305/4

f 42/89/4 49/88/4 133/304/4

vn 2.05107e-16 0.653483 0.756941
f 133/304/59 49/88/59 86/160/59 85/159/59 

v 2.84217e-14 46.0206 -8.88054
vt -2.82297 0.446802
vn -0.535238 0.653483 0.535238
vt -2.72343 0.529516
vt -2.80058 0.529516
f 134/306/60 86/160/60 49/307/60 50/308/60 

vt -2.82297 1.37969e-16
f 58/309/11 60/157/11 86/160/11 134/306/11 

vn -1 0 1.23017e-15
f 56/99/61 58/309/61 134/306/61 54/95/61 

vt -2.81592 0.693184
vn -0.756941 0.653483 9.77171e-16
vt -2.81592 0.561683
f 54/310/62 134/311/62 50/90/62 52/93/62 

vn 0.535238 0.653483 0.535238
v 25.7384 52.4694 -11.1866
vt -2.47 0.529516
vt -2.54715 0.529516
f 85/159/63 88/162/63 135/312/63 133/313/63 

vt -1.9509 0.446802
vn 0.756941 0.653483 -3.43938e-16
vt -1.81939 0.446802
v 25.7384 52.4694 -20.1191
vt -1.84178 0.529516
vt -1.92851 0.529516
f 88/314/64 91/315/64 136/316/64 135/317/64 

vt -1.9509 1.37969e-16
vn 1 0 -4.92067e-16
vt -1.81939 1.37969e-16
f 87/318/65 89/319/65 91/315/65 88/314/65 

f 87/164/2 66/163/2 89/169/2

vn 0.535238 0.653483 -0.535238
vt -1.71411 0.508305
vt -1.77516 0.568432
f 91/315/66 90/320/66 92/321/66 136/316/66 

vt -2.5833 0.651773
vt -2.53737 0.670795
f 92/176/4 44/322/4 136/323/4

vt -2.61095 0.679428
f 92/176/4 45/324/4 44/322/4

f 92/176/4 46/177/4 45/324/4

vt -2.53737 0.584072
f 136/323/4 44/322/4 135/325/4

vt -2.5833 0.603094
f 43/326/4 135/325/4 44/322/4

f 43/326/4 133/304/4 135/325/4

f 41/305/4 133/304/4 43/326/4

vt -5.48413 1.44645
vt -5.48413 1.56033
f 59/327/28 57/328/28 73/151/28 62/109/28 

